<?xml version="1.0" encoding="UTF-8"?> <svg xmlns="http://www.w3.org/2000/svg" width="512" height="512" viewBox="0 0 512 512" fill="none"> <path d="M160 448V464H144V448H160ZM112 448V464H128V448H112ZM16.977 457.661C16.3255 454.482 15.9982 451.245 16 448V304H32V448C32.0095 456.484 35.384 464.618 41.3831 470.617C47.3822 476.616 55.516 479.991 64 480H184V424H88C85.8783 424 83.8434 423.157 82.3432 421.657C80.8429 420.157 80 418.122 80 416V320H96V408H98.744L142.079 328.98L123.541 308.592C123.531 308.581 123.523 308.568 123.512 308.557L68.6 248.155C58.622 249.017 49.3291 253.587 42.554 260.962C35.7789 268.338 32.0134 277.985 32 288H16C16.0178 274.54 20.8766 261.535 29.6891 251.36C38.5017 241.185 50.6799 234.52 64 232.581V89.5411L50.012 54.5711C48.0624 49.4467 47.6116 43.8733 48.7124 38.5023C49.8131 33.1312 52.4199 28.1844 56.228 24.2401C58.8353 21.6211 61.9356 19.5446 65.3498 18.1303C68.764 16.716 72.4245 15.992 76.12 16.0001H211.88C216.476 16.0016 221.002 17.1295 225.062 19.2853C229.121 21.441 232.591 24.5589 235.166 28.3659C237.741 32.173 239.345 36.5532 239.835 41.1233C240.326 45.6934 239.689 50.3141 237.98 54.5811C237.98 54.5811 227 82.0411 227 82.0411L246.968 86.0351C252.124 87.0658 256.713 89.977 259.843 94.2029C262.972 98.4288 264.418 103.667 263.9 108.9C263.382 114.133 260.936 118.986 257.039 122.516C253.141 126.046 248.07 128.001 242.812 128C239.376 128 235.946 127.921 232.521 127.762L247.428 165.029C247.914 166.243 248.094 167.557 247.954 168.857C247.814 170.157 247.358 171.403 246.625 172.485C245.892 173.568 244.905 174.454 243.75 175.067C242.595 175.68 241.307 176 240 176H216V216C216.004 221.62 214.519 227.141 211.695 232H212.67C224.841 231.999 236.813 235.084 247.468 240.965C258.124 246.847 267.114 255.333 273.6 265.632L295.644 300.646L282.1 309.17L260.059 274.162C256.454 268.469 251.856 263.469 246.485 259.4L164.992 408H214.383L212.612 406.483C209.32 403.667 206.908 399.962 205.664 395.812C204.421 391.662 204.398 387.242 205.599 383.079C206.8 378.916 209.173 375.187 212.436 372.337C215.699 369.487 219.714 367.636 224 367.006V320H240V341.75L274.431 398.1L288.885 409.663L308.364 276.585C309.277 270.838 312.212 265.606 316.641 261.832C321.07 258.058 326.701 255.99 332.52 256H352.706C357.688 246.673 367.931 240 378.382 240H388.393L388.893 238.033C392.024 225.678 404.345 216 416.938 216C419.967 215.882 422.984 216.455 425.759 217.676C428.534 218.897 430.995 220.733 432.956 223.045C434.916 225.358 436.325 228.086 437.075 231.024C437.824 233.961 437.896 237.031 437.284 240H443.32C446.48 239.929 449.614 240.585 452.481 241.916C455.347 243.248 457.87 245.22 459.854 247.68C461.737 250.121 463.018 252.971 463.593 256H471.6C475.123 255.991 478.607 256.742 481.815 258.2C485.022 259.659 487.878 261.791 490.187 264.452C492.421 267.029 494.074 270.056 495.034 273.329C495.993 276.601 496.236 280.042 495.746 283.417L486.32 347.776C489.91 350.204 492.703 353.638 494.348 357.648C495.994 361.658 496.418 366.064 495.568 370.314L485.489 420.707C484.39 426.142 481.447 431.03 477.159 434.546C472.871 438.061 467.5 439.988 461.955 440H436.15C432.895 440 429.681 439.278 426.739 437.885C423.797 436.493 421.2 434.465 419.137 431.948C417.073 429.431 415.594 426.487 414.805 423.329C414.017 420.171 413.939 416.878 414.577 413.686L424.655 363.293C425.755 357.858 428.697 352.97 432.986 349.455C437.274 345.939 442.644 344.012 448.189 344H470.7L479.912 281.1C480.076 279.998 479.997 278.873 479.68 277.805C479.364 276.736 478.818 275.75 478.08 274.915C477.273 273.992 476.276 273.254 475.158 272.751C474.04 272.248 472.826 271.992 471.6 272H461.72L457.163 289.967C456.725 291.692 455.725 293.222 454.321 294.314C452.916 295.407 451.187 296 449.408 296H352C350.782 296 349.58 295.722 348.486 295.187C347.391 294.652 346.434 293.874 345.685 292.913C344.937 291.951 344.419 290.832 344.169 289.64C343.92 288.447 343.945 287.214 344.245 286.033L347.805 272H332.52C330.538 271.971 328.611 272.649 327.085 273.914C325.559 275.179 324.534 276.947 324.195 278.9L296.086 470.9C295.925 471.988 295.999 473.097 296.305 474.154C296.611 475.21 297.141 476.188 297.858 477.021C298.641 477.936 299.61 478.675 300.699 479.188C301.789 479.701 302.976 479.977 304.18 479.997L304.394 480.005H443.48C445.462 480.034 447.389 479.356 448.915 478.091C450.441 476.826 451.466 475.058 451.805 473.105L454.477 454.85L470.309 457.168L467.636 475.427C466.721 481.172 463.784 486.401 459.356 490.173C454.927 493.945 449.297 496.011 443.48 496H64C52.9501 495.986 42.2422 492.166 33.678 485.184C25.1139 478.201 19.2161 468.482 16.977 457.661V457.661ZM478.636 362.2C478.078 361.509 477.371 360.952 476.569 360.572C475.766 360.191 474.888 359.995 474 360H448.189C446.341 360.004 444.551 360.647 443.121 361.819C441.692 362.991 440.711 364.62 440.345 366.432L430.267 416.823C430.093 417.694 430.114 418.592 430.329 419.453C430.544 420.314 430.947 421.117 431.51 421.804C432.073 422.49 432.781 423.043 433.583 423.423C434.386 423.803 435.262 424 436.15 424H461.955C463.803 423.996 465.594 423.354 467.023 422.182C468.453 421.01 469.434 419.381 469.8 417.569L479.879 367.177C480.058 366.307 480.04 365.408 479.825 364.547C479.61 363.685 479.203 362.883 478.636 362.2V362.2ZM362.282 280H443.182L447.738 262.033C447.999 261.288 448.088 260.494 447.998 259.71C447.909 258.926 447.644 258.172 447.222 257.505C446.727 256.976 446.118 256.566 445.442 256.307C444.765 256.047 444.039 255.944 443.317 256.005H427.086C425.868 256.005 424.666 255.727 423.572 255.192C422.477 254.657 421.52 253.879 420.771 252.918C420.023 251.956 419.505 250.837 419.255 249.645C419.006 248.452 419.031 247.219 419.331 246.038L421.36 238.038C421.62 237.293 421.709 236.499 421.62 235.715C421.53 234.93 421.265 234.177 420.844 233.509C420.348 232.98 419.74 232.571 419.063 232.311C418.387 232.051 417.66 231.948 416.938 232.009C411.605 232.009 405.747 236.666 404.4 241.976L402.371 249.976C401.932 251.699 400.931 253.227 399.527 254.318C398.122 255.409 396.394 256.001 394.616 256H378.382C373.049 256 367.189 260.657 365.843 265.967L362.282 280ZM215.208 96.0001H161.745C187.47 106.553 215.006 111.988 242.812 112C244.099 112 245.341 111.521 246.294 110.657C247.248 109.793 247.847 108.605 247.974 107.324C248.101 106.043 247.747 104.76 246.981 103.725C246.215 102.691 245.092 101.978 243.83 101.725L215.208 96.0001ZM210.615 79.9201L217.041 63.8571L220.184 56.0001H212C208.937 55.9996 205.99 57.1704 203.763 59.2724C201.535 61.3745 200.195 64.2487 200.018 67.3064C199.841 70.3641 200.84 73.3738 202.81 75.7189C204.78 78.064 207.573 79.567 210.615 79.9201V79.9201ZM77.416 80.0001H186.707C185.503 77.4705 184.688 74.7733 184.29 72.0001H96V56.0001H186.707C188.981 51.2161 192.563 47.1741 197.04 44.3424C201.516 41.5107 206.703 40.0051 212 40.0001H223.263C222.416 37.6597 220.869 35.6366 218.833 34.2055C216.796 32.7743 214.369 32.0043 211.88 32.0001H76.12C74.1375 31.9989 72.185 32.4842 70.4338 33.4133C68.6825 34.3425 67.186 35.6871 66.0754 37.3294C64.9649 38.9716 64.2742 40.8612 64.0641 42.8325C63.8539 44.8038 64.1306 46.7966 64.87 48.6361L77.416 80.0001ZM84.288 125.84C87.8 111.829 100.33 104 114.233 104L116.901 96.0001H80V164.686L91.654 153.032C88.2236 149.494 85.7481 145.143 84.4597 140.387C83.1713 135.631 83.1122 130.625 84.288 125.84V125.84ZM80 232H184C188.242 231.995 192.309 230.308 195.308 227.308C198.308 224.309 199.995 220.242 200 216V200H176V184H200V168C200 165.878 200.843 163.843 202.343 162.343C203.843 160.843 205.878 160 208 160H228.184L214.684 126.256C206.663 125.263 198.699 123.849 190.827 122.019C191.956 124.804 192.277 127.851 191.755 130.81C191.232 133.769 189.887 136.522 187.873 138.752C185.859 140.982 183.258 142.6 180.367 143.421C177.476 144.241 174.413 144.231 171.527 143.391C168.642 142.551 166.051 140.916 164.052 138.672C162.053 136.429 160.726 133.667 160.224 130.705C159.721 127.742 160.063 124.697 161.21 121.92C162.358 119.143 164.264 116.744 166.711 115C154.914 110.858 143.476 105.759 132.511 99.7521L127.585 114.532C127.054 116.124 126.036 117.508 124.675 118.49C123.313 119.471 121.678 119.999 120 120H112.27C109.406 119.996 106.623 120.952 104.365 122.714C102.107 124.476 100.504 126.943 99.811 129.722C99.1847 132.555 99.502 135.515 100.715 138.151C101.927 140.787 103.968 142.954 106.527 144.322L107.551 144.829C108.689 145.393 109.677 146.219 110.432 147.241C111.188 148.262 111.689 149.448 111.895 150.702C112.1 151.955 112.005 153.24 111.616 154.449C111.227 155.658 110.555 156.757 109.657 157.655L80 187.314V232ZM184 248H173.766L168.218 264.645L170.349 277.43L186.489 248H184ZM127.589 265.805L115.719 248H90.084L124.284 285.62L127.589 265.805ZM150.215 314.144L157.91 300.112L152.11 265.312C151.896 264.025 151.998 262.705 152.41 261.467L156.9 248H134.948L142.656 259.562C143.784 261.253 144.225 263.311 143.891 265.316L137.991 300.697L150.215 314.144ZM146.743 408L232.484 251.649C226.153 249.248 219.441 248.012 212.67 248H204.749L116.992 408H146.743ZM270.8 417.1L240 429.416V480H281.408C280.093 476.347 279.697 472.426 280.254 468.583L286.11 428.589L270.8 417.1ZM223.021 394.331L242.627 411.131L257.619 405.131L231.432 384.182C230.831 383.703 230.152 383.331 229.425 383.082C227.975 382.593 226.401 382.624 224.971 383.169C223.542 383.714 222.346 384.739 221.59 386.069C220.833 387.398 220.563 388.95 220.825 390.457C221.086 391.964 221.864 393.333 223.025 394.33L223.021 394.331ZM200 480H224V424H200V480Z" fill="#0D83D0"></path> </svg> 