<?xml version="1.0" encoding="UTF-8"?> <svg xmlns="http://www.w3.org/2000/svg" width="512" height="512" viewBox="0 0 512 512" fill="none"> <path d="M376 480C345.12 480 320 454.88 320 424V213.872C290.16 194.848 272 162.128 272 126.304C272 87.104 293.728 51.648 328.704 33.744C333.68 31.216 339.6 31.424 344.352 34.336C349.104 37.264 352 42.416 352 48V117.168L376 126.768L400 117.168V48C400 42.416 402.896 37.264 407.648 34.336C412.4 31.424 418.32 31.216 423.296 33.744C458.272 51.664 480 87.104 480 126.32C480 162.128 461.84 194.848 432 213.888V424C432 454.88 406.88 480 376 480V480ZM320 81.056C309.808 93.616 304 109.456 304 126.304C304 153.408 319.056 177.968 343.296 190.384C348.64 193.12 352 198.624 352 204.624V424C352 437.232 362.768 448 376 448C389.232 448 400 437.232 400 424V204.624C400 198.624 403.36 193.12 408.704 190.384C432.944 177.968 448 153.424 448 126.32C448 109.472 442.192 93.632 432 81.072V128C432 134.544 428.016 140.416 421.952 142.864L381.952 158.864C378.128 160.4 373.888 160.4 370.064 158.864L330.064 142.864C323.984 140.416 320 134.544 320 128V81.056Z" fill="#0D83D0"></path> <path d="M273.184 480H238.832C222.208 480 208.192 467.024 206.928 450.464L204.912 424.304C193.936 420.976 183.312 416.56 173.152 411.12L153.216 428.192C140.592 439.024 121.52 438.272 109.776 426.544L85.456 402.208C73.712 390.464 72.976 371.376 83.792 358.752L100.864 338.832C95.424 328.672 91.008 318.048 87.68 307.072L61.536 305.072C44.976 303.824 32 289.808 32 273.184V238.816C32 222.192 44.976 208.176 61.552 206.912L87.696 204.912C91.024 193.92 95.44 183.296 100.88 173.152L83.792 153.2C72.976 140.592 73.712 121.52 85.472 109.744L109.76 85.44C121.52 73.68 140.608 72.96 153.216 83.776L173.152 100.848C183.312 95.408 193.936 90.992 204.912 87.664L206.928 61.504C208.192 44.976 222.208 32 238.816 32H256C264.832 32 272 39.152 272 48C272 56.848 264.832 64 256 64H238.816L235.936 101.456C235.392 108.432 230.384 114.24 223.584 115.808C208.112 119.376 193.392 125.472 179.84 133.968C173.936 137.696 166.272 137.136 160.944 132.544L132.384 108.08L108.096 132.4L132.56 160.944C137.12 166.256 137.68 173.92 133.968 179.84C125.488 193.408 119.376 208.128 115.808 223.584C114.24 230.4 108.416 235.408 101.44 235.936L64 238.816V273.184L101.44 276.064C108.416 276.592 114.24 281.616 115.808 288.416C119.376 303.888 125.472 318.608 133.968 332.16C137.68 338.08 137.104 345.744 132.56 351.056L108.096 379.6L132.4 403.92L160.944 379.456C166.272 374.88 173.936 374.32 179.84 378.032C193.408 386.512 208.128 392.624 223.584 396.192C230.4 397.776 235.408 403.584 235.936 410.544L238.816 448H273.168C273.84 439.2 281.504 432.624 290.352 433.28C299.168 433.952 305.76 441.648 305.072 450.464C303.808 467.024 289.792 480 273.184 480V480Z" fill="#0D83D0"></path> <path d="M144 256C144 201.056 183.264 154.608 237.36 145.552C246.048 144 254.336 149.968 255.776 158.688C257.232 167.408 251.36 175.648 242.64 177.104C204.032 183.584 176 216.768 176 256C176 311.248 230.88 349.776 282.672 331.456C290.96 328.496 300.144 332.848 303.104 341.184C306.048 349.52 301.696 358.656 293.36 361.6C220.512 387.376 144 333.056 144 256Z" fill="#0D83D0"></path> </svg> 