<?xml version="1.0" encoding="UTF-8"?> <svg xmlns="http://www.w3.org/2000/svg" width="406" height="350" viewBox="0 0 406 350" fill="none"> <path fill-rule="evenodd" clip-rule="evenodd" d="M203.333 192.011C197.467 192.011 192.667 196.789 192.667 202.677C192.667 208.565 197.467 213.344 203.333 213.344C209.2 213.344 214 208.565 214 202.677C214 196.789 209.2 192.011 203.333 192.011ZM203.333 234.677C185.691 234.677 171.333 220.32 171.333 202.677C171.333 185.035 185.691 170.677 203.333 170.677C208.261 170.677 212.933 171.808 217.115 173.792L267.568 123.36C271.728 119.2 278.469 119.2 282.651 123.36C286.811 127.541 286.811 134.283 282.651 138.443L232.219 188.896C234.203 193.056 235.333 197.749 235.333 202.677C235.333 220.32 220.976 234.677 203.333 234.677ZM339.099 349.109C336.261 349.109 333.552 347.979 331.568 345.973L301.403 315.808C297.221 311.648 297.221 304.907 301.403 300.725C305.563 296.565 312.304 296.565 316.485 300.725L338.885 323.125C366.832 291.701 381.957 252.832 384.261 213.344H352.667C346.779 213.344 342 208.565 342 202.677C342 196.789 346.779 192.011 352.667 192.011H384.261C381.979 152.501 366.832 113.632 338.885 82.2294L316.485 104.629C312.304 108.789 305.563 108.789 301.403 104.629C297.221 100.448 297.221 93.7068 301.403 89.5468L323.803 67.1254C293.232 39.8827 254.896 23.9894 214 21.6427V53.3441C214 59.2321 209.221 64.0107 203.333 64.0107C197.445 64.0107 192.667 59.2321 192.667 53.3441V21.6427C151.771 23.9894 113.435 39.8827 82.864 67.1254L105.264 89.5254C109.445 93.7067 109.445 100.448 105.264 104.608C101.104 108.789 94.3627 108.789 90.1814 104.608L67.7814 82.2081C39.8347 113.632 24.688 152.501 22.4054 192.011H54C59.888 192.011 64.6667 196.789 64.6667 202.677C64.6667 208.565 59.888 213.344 54 213.344H22.4054C24.7094 252.832 39.8347 291.723 67.7814 323.125L90.1814 300.725C94.3627 296.565 101.104 296.565 105.264 300.725C109.445 304.907 109.445 311.648 105.264 315.808L75.0987 345.973C73.1147 347.979 70.4054 349.109 67.568 349.109C64.7307 349.109 62.0214 347.979 60.016 345.973C20.8694 306.827 1.11469 255.541 0.773356 204.128C0.709356 203.637 0.666687 203.168 0.666687 202.677C0.666687 202.187 0.709356 201.717 0.773356 201.227C1.11469 149.813 20.8694 98.5067 60.016 59.3601C98.288 21.0881 149.189 0.0107422 203.333 0.0107422C257.477 0.0107422 308.379 21.0881 346.651 59.3601C385.797 98.5067 405.552 149.813 405.893 201.227C405.957 201.717 406 202.187 406 202.677C406 203.168 405.957 203.637 405.893 204.128C405.552 255.541 385.797 306.827 346.651 345.973C344.645 347.979 341.936 349.109 339.099 349.109Z" fill="#0D83D0"></path> </svg> 