<?xml version="1.0" encoding="UTF-8"?> <svg xmlns="http://www.w3.org/2000/svg" width="512" height="512" viewBox="0 0 512 512" fill="none"> <path d="M172.55 391.902C172.42 391.262 172.23 390.632 171.98 390.022C171.73 389.422 171.42 388.842 171.06 388.302C170.7 387.752 170.28 387.242 169.82 386.782C169.36 386.322 168.85 385.902 168.3 385.542C167.76 385.182 167.18 384.872 166.57 384.622C165.97 384.372 165.34 384.172 164.7 384.052C163.41 383.792 162.08 383.792 160.8 384.052C160.16 384.172 159.53 384.372 158.92 384.622C158.32 384.872 157.74 385.182 157.2 385.542C156.65 385.902 156.14 386.322 155.68 386.782C155.22 387.242 154.8 387.752 154.44 388.302C154.07 388.842 153.77 389.422 153.52 390.022C153.27 390.632 153.07 391.262 152.95 391.902C152.82 392.542 152.75 393.202 152.75 393.852C152.75 394.502 152.82 395.162 152.95 395.802C153.07 396.442 153.27 397.072 153.52 397.672C153.77 398.282 154.07 398.862 154.44 399.402C154.8 399.952 155.22 400.462 155.68 400.922C156.14 401.382 156.65 401.802 157.2 402.162C157.74 402.523 158.32 402.833 158.92 403.083C159.53 403.333 160.16 403.533 160.8 403.653C161.44 403.783 162.1 403.853 162.75 403.853C163.4 403.853 164.06 403.783 164.7 403.653C165.34 403.533 165.97 403.333 166.57 403.083C167.18 402.833 167.76 402.522 168.3 402.162C168.85 401.802 169.36 401.382 169.82 400.922C170.28 400.462 170.7 399.952 171.06 399.402C171.42 398.862 171.73 398.282 171.98 397.672C172.23 397.072 172.42 396.442 172.55 395.802C172.68 395.162 172.75 394.502 172.75 393.852C172.75 393.202 172.68 392.542 172.55 391.902Z" fill="#0D83D0"></path> <path d="M459.993 394.982C459.954 394.882 459.914 394.783 459.872 394.685C450.668 373.148 429.082 365.188 403.536 373.913L333.868 393.179C329.84 380.981 319.793 370.601 305.587 365.329C305.499 365.297 305.411 365.265 305.322 365.235L228.741 339.243C222.367 331.004 202.401 309.922 165.018 309.922C138.893 309.922 115.782 327.844 102.56 347.379H10C4.477 347.379 0 351.856 0 357.379V483.456C0 488.979 4.477 493.456 10 493.456H69.457C74.98 493.456 79.457 488.979 79.457 483.456V474.822H107.34C112.863 474.822 117.34 470.345 117.34 464.822V461.944C133.594 463.362 138.94 466.445 153.868 475.053C165.348 481.673 182.699 491.678 213.945 505.727C214.09 505.792 214.237 505.854 214.384 505.912C220.381 508.271 232.104 511.977 246.557 511.977C256.617 511.977 268.002 510.18 279.688 504.883L433.679 449.747C433.953 449.649 434.223 449.539 434.487 449.417C449.204 442.646 471.135 423.563 459.993 394.982ZM59.457 473.455H20V367.378H59.457V473.455ZM97.34 454.821H79.457V367.378H97.34V454.821ZM426.496 431.074L272.574 486.185C272.439 486.233 272.256 486.305 272.123 486.359C271.988 486.414 271.853 486.472 271.72 486.533C250.283 496.385 229.906 490.487 221.92 487.382C191.738 473.801 175.629 464.512 163.859 457.725C147.495 448.289 139.61 443.741 117.34 441.902V361.36C126.819 345.824 145.201 329.921 165.019 329.921C199.005 329.921 213.406 352.026 213.972 352.918C215.193 354.904 217.07 356.401 219.277 357.15L298.752 384.124C311.445 388.888 318.153 399.758 315.07 410.598C313.647 415.604 310.359 419.756 305.813 422.289C301.306 424.8 296.096 425.421 291.13 424.047L201.537 395.655C196.269 393.986 190.651 396.902 188.983 402.167C187.314 407.432 190.23 413.052 195.495 414.721L285.244 443.162C285.339 443.192 285.434 443.221 285.53 443.248C289.113 444.267 292.761 444.771 296.387 444.771C303.025 444.771 309.59 443.08 315.548 439.76C324.761 434.627 331.423 426.213 334.307 416.068C334.537 415.258 334.741 414.448 334.918 413.638L410.001 392.838C420.845 389.134 435.08 387.799 441.418 402.396C447.978 419.533 430.928 428.96 426.496 431.074Z" fill="#0D83D0"></path> <path d="M359.06 131.543C358.93 130.903 358.74 130.273 358.48 129.663C358.23 129.063 357.93 128.483 357.56 127.943C357.2 127.393 356.78 126.883 356.32 126.423C355.86 125.963 355.35 125.543 354.8 125.183C354.26 124.823 353.68 124.513 353.08 124.263C352.47 124.013 351.84 123.813 351.21 123.693C349.92 123.433 348.59 123.433 347.3 123.693C346.66 123.813 346.03 124.013 345.43 124.263C344.82 124.513 344.24 124.823 343.7 125.183C343.15 125.543 342.64 125.963 342.18 126.423C341.72 126.883 341.3 127.393 340.94 127.943C340.58 128.483 340.27 129.063 340.02 129.663C339.77 130.273 339.57 130.903 339.45 131.543C339.32 132.183 339.25 132.843 339.25 133.493C339.25 134.143 339.32 134.803 339.45 135.443C339.57 136.083 339.77 136.713 340.02 137.313C340.27 137.923 340.58 138.503 340.94 139.043C341.3 139.593 341.72 140.103 342.18 140.563C342.64 141.023 343.15 141.443 343.7 141.803C344.24 142.163 344.82 142.473 345.43 142.723C346.03 142.973 346.66 143.163 347.3 143.293C347.94 143.423 348.6 143.493 349.25 143.493C349.9 143.493 350.56 143.423 351.21 143.293C351.84 143.163 352.47 142.973 353.08 142.723C353.68 142.473 354.26 142.163 354.8 141.803C355.35 141.443 355.86 141.023 356.32 140.563C356.78 140.103 357.2 139.593 357.56 139.043C357.93 138.503 358.23 137.923 358.48 137.313C358.74 136.713 358.93 136.083 359.06 135.443C359.19 134.803 359.25 134.143 359.25 133.493C359.25 132.843 359.19 132.183 359.06 131.543Z" fill="#0D83D0"></path> <path d="M502 33.8909H442.543C437.02 33.8909 432.543 38.3679 432.543 43.8909V52.5249H404.66C399.137 52.5249 394.66 57.0019 394.66 62.5249V65.4029C378.406 63.9839 373.06 60.9019 358.133 52.2939C346.653 45.6739 329.302 35.6689 298.055 21.6199C297.91 21.5539 297.764 21.4929 297.615 21.4349C287.444 17.4329 260.787 9.55894 232.316 22.4619L192.076 36.8699L158.157 2.95194C154.252 -0.953057 147.92 -0.953057 144.015 2.95194L32.657 114.309C29.055 117.912 28.364 124.159 32.657 128.452L222.944 318.739C225.989 321.785 233.119 322.706 237.087 318.739L338.752 217.075C341.395 217.303 344.138 217.426 346.981 217.426C373.107 217.426 396.217 199.504 409.438 179.97H502C507.523 179.97 512 175.493 512 169.97V43.8909C512 38.3679 507.523 33.8909 502 33.8909ZM151.085 24.1649L173.877 46.9569C167.102 51.1469 159.269 53.3889 151.085 53.3889C142.9 53.3889 135.068 51.1479 128.293 46.9569L151.085 24.1649ZM76.663 144.173L53.871 121.38L76.663 98.5879C80.853 105.363 83.095 113.196 83.095 121.38C83.095 129.564 80.854 137.397 76.663 144.173ZM230.016 297.525L207.228 274.737C221.141 266.151 238.889 266.151 252.803 274.737L230.016 297.525ZM267.211 260.331C245.113 244.301 214.919 244.301 192.821 260.331L91.07 158.579C98.879 147.839 103.095 134.938 103.095 121.38C103.095 107.821 98.88 94.9209 91.07 84.1809L113.887 61.3649C124.627 69.1739 137.527 73.3899 151.086 73.3899C164.645 73.3899 177.545 69.1739 188.285 61.3649L209.914 82.9939C205.247 83.6829 200.696 85.2209 196.452 87.5859C189.284 91.5799 183.66 97.5609 180.158 104.797C168.878 106.886 158.435 112.347 150.243 120.538C128.018 142.764 128.018 178.927 150.244 201.153C161.356 212.265 175.953 217.822 190.551 217.822C205.148 217.822 219.746 212.266 230.859 201.153C238.089 193.923 243.154 185.037 245.691 175.353L279.455 186.812C275.654 204.42 279.547 222.944 290.048 237.494L267.211 260.331ZM206.413 162.018C206.501 162.05 206.589 162.082 206.678 162.112L226.674 168.899C225.164 175.714 221.747 181.98 216.717 187.011C202.289 201.437 178.813 201.439 164.387 187.011C149.959 172.584 149.959 149.109 164.387 134.681C167.867 131.199 171.974 128.478 176.449 126.633C178.295 141.995 189.356 155.688 206.413 162.018ZM304.457 223.084C300.597 216.794 298.413 209.615 298.068 202.288C302.858 205.751 308.712 209.144 315.704 211.837L304.457 223.084ZM394.659 165.983C385.181 181.521 366.799 197.424 346.981 197.424C343.273 197.424 339.798 197.16 336.549 196.69C336.536 196.688 336.523 196.686 336.51 196.684C314.914 193.547 303.297 181.273 299.468 176.413C299.264 176.113 298.395 174.976 298.266 174.787C297.101 172.705 295.191 171.031 292.755 170.204L213.247 143.219C200.559 138.457 193.852 127.592 196.926 116.756C196.928 116.749 196.93 116.742 196.932 116.735C196.935 116.727 196.937 116.718 196.939 116.71C198.368 111.72 201.65 107.581 206.186 105.054C210.692 102.543 215.901 101.92 220.869 103.297L310.462 131.688C315.728 133.359 321.348 130.441 323.016 125.176C324.684 119.911 321.769 114.291 316.504 112.622L245.249 90.0419L244.627 89.4199C244.621 89.4139 244.615 89.4069 244.608 89.4009L207.718 52.5109L239.426 41.1569C239.533 41.1179 239.665 41.0689 239.771 41.0259C239.798 41.0149 239.85 40.9949 239.876 40.9839C240.012 40.9289 240.146 40.8709 240.279 40.8099C261.715 30.9579 282.091 36.8549 290.078 39.9609C320.261 53.5419 336.371 62.8309 348.141 69.6179C364.505 79.0549 372.39 83.6019 394.659 85.4409V165.983V165.983ZM432.543 159.968H414.66V72.5249H432.543V159.968ZM492 159.968H452.543V53.8909H492V159.968Z" fill="#0D83D0"></path> </svg> 