<?xml version="1.0" encoding="UTF-8"?> <svg xmlns="http://www.w3.org/2000/svg" width="512" height="512" viewBox="0 0 512 512" fill="none"> <g clip-path="url(#clip0_304_2)"> <path d="M497 464.725C480.445 464.725 472.977 461.006 463.521 456.297C459.619 454.354 455.527 452.32 450.801 450.507L501.465 317.225C505.408 306.851 504.754 295.245 499.669 285.381C494.584 275.517 485.509 268.251 474.773 265.446L439.887 256.331V151.704C439.887 129.746 422.023 111.882 400.065 111.882H331.214V73.1679C331.214 42.3479 306.14 17.2739 275.32 17.2739H236.681C205.861 17.2739 180.787 42.3479 180.787 73.1679V111.881H111.936C89.978 111.881 72.114 129.745 72.114 151.703V256.331L37.228 265.446C26.491 268.251 17.416 275.517 12.332 285.381C7.248 295.245 6.592 306.851 10.536 317.225L61.2 450.509C56.476 452.322 52.384 454.355 48.483 456.298C39.026 461.006 31.557 464.726 15 464.726C6.716 464.726 0 471.442 0 479.726C0 488.01 6.716 494.726 15 494.726C38.612 494.726 50.96 488.578 61.854 483.154C71.311 478.446 78.78 474.726 95.337 474.726C111.894 474.726 119.363 478.445 128.82 483.154C139.714 488.578 152.062 494.726 175.674 494.726C199.285 494.726 211.632 488.578 222.527 483.154C231.983 478.446 239.452 474.726 256.007 474.726C272.562 474.726 280.03 478.445 289.486 483.154C300.38 488.578 312.727 494.726 336.338 494.726C359.949 494.726 372.296 488.578 383.19 483.154C392.646 478.446 400.115 474.726 416.67 474.726C433.225 474.726 440.693 478.445 450.149 483.154C461.043 488.578 473.39 494.726 497.001 494.726C505.285 494.726 512.001 488.01 512.001 479.726C512.001 471.442 505.284 464.725 497 464.725V464.725ZM210.787 73.1679C210.787 58.8899 222.403 47.2739 236.681 47.2739H275.32C289.598 47.2739 301.214 58.8899 301.214 73.1679V111.881H210.787V73.1679ZM102.113 151.704C102.113 146.288 106.519 141.882 111.935 141.882H400.064C405.48 141.882 409.886 146.288 409.886 151.704V248.493L259.791 209.275C257.305 208.626 254.693 208.626 252.207 209.275L102.112 248.493V151.704H102.113ZM369.817 456.298C360.361 461.006 352.892 464.725 336.338 464.725C319.784 464.725 312.315 461.006 302.859 456.297C291.965 450.873 279.618 444.725 256.007 444.725C232.396 444.725 220.049 450.873 209.154 456.297C199.698 461.005 192.229 464.725 175.674 464.725C159.118 464.725 151.648 461.006 142.192 456.297C131.298 450.873 118.95 444.725 95.338 444.725C93.891 444.725 92.487 444.749 91.122 444.793L38.577 306.565C37.316 303.248 38.299 300.482 38.997 299.128C39.695 297.774 41.378 295.369 44.811 294.472L256 239.291L467.189 294.473C470.622 295.369 472.305 297.774 473.003 299.128C473.701 300.482 474.684 303.248 473.423 306.566L420.879 444.794C419.516 444.75 418.114 444.726 416.669 444.726C393.058 444.725 380.711 450.874 369.817 456.298V456.298Z" fill="#0D83D0"></path> <path d="M394.677 316.055L259.792 280.811C257.306 280.162 254.694 280.162 252.208 280.811L117.323 316.055C109.308 318.149 104.508 326.345 106.602 334.36C108.696 342.375 116.892 347.174 124.907 345.081L256 310.828L387.093 345.081C388.364 345.414 389.64 345.572 390.895 345.572C397.554 345.572 403.636 341.104 405.397 334.36C407.492 326.345 402.692 318.149 394.677 316.055V316.055Z" fill="#0D83D0"></path> </g> <defs> <clipPath id="clip0_304_2"> <rect width="512" height="512" fill="white"></rect> </clipPath> </defs> </svg> 