<?xml version="1.0" encoding="UTF-8"?> <svg xmlns="http://www.w3.org/2000/svg" width="512" height="512" viewBox="0 0 512 512" fill="none"> <path fill-rule="evenodd" clip-rule="evenodd" d="M485.333 146.667C485.333 102.485 449.515 66.6665 405.333 66.6665C324.779 66.6665 187.221 66.6665 106.667 66.6665C62.4854 66.6665 26.6667 102.485 26.6667 146.667V402.667C26.6667 446.848 62.4854 482.667 106.667 482.667H405.333C449.515 482.667 485.333 446.848 485.333 402.667V146.667ZM453.333 146.667V402.667C453.333 429.184 431.851 450.667 405.333 450.667C324.779 450.667 187.221 450.667 106.667 450.667C80.1494 450.667 58.6667 429.184 58.6667 402.667V146.667C58.6667 120.149 80.1494 98.6665 106.667 98.6665H405.333C431.851 98.6665 453.333 120.149 453.333 146.667Z" fill="#0D83D0"></path> <path fill-rule="evenodd" clip-rule="evenodd" d="M469.333 194.667H42.6667C33.8347 194.667 26.6667 201.835 26.6667 210.667C26.6667 219.499 33.8347 226.667 42.6667 226.667H469.333C478.165 226.667 485.333 219.499 485.333 210.667C485.333 201.835 478.165 194.667 469.333 194.667Z" fill="#0D83D0"></path> <path fill-rule="evenodd" clip-rule="evenodd" d="M144 45.3333V120C144 128.832 151.168 136 160 136C168.832 136 176 128.832 176 120V45.3333C176 36.5013 168.832 29.3333 160 29.3333C151.168 29.3333 144 36.5013 144 45.3333Z" fill="#0D83D0"></path> <path fill-rule="evenodd" clip-rule="evenodd" d="M336 45.3333V120C336 128.832 343.168 136 352 136C360.832 136 368 128.832 368 120V45.3333C368 36.5013 360.832 29.3333 352 29.3333C343.168 29.3333 336 36.5013 336 45.3333Z" fill="#0D83D0"></path> </svg> 