<?xml version="1.0" encoding="UTF-8"?> <svg xmlns="http://www.w3.org/2000/svg" width="512" height="512" viewBox="0 0 512 512" fill="none"> <path d="M496 192H448C439.152 192 432 199.168 432 208V224H416V208C416 199.168 408.848 192 400 192H374.624L331.328 148.704C329.856 147.216 328.08 146.048 326.112 145.232C324.16 144.432 322.08 144 320 144H272V112H304C312.848 112 320 104.832 320 96C320 87.168 312.848 80 304 80H160C151.152 80 144 87.168 144 96C144 104.832 151.152 112 160 112H192V144H144C143.488 144 143.056 144.24 142.56 144.288C141.408 144.4 140.336 144.608 139.248 144.96C138.304 145.264 137.44 145.6 136.576 146.064C135.68 146.544 134.864 147.104 134.048 147.76C133.2 148.464 132.464 149.2 131.776 150.048C131.44 150.448 130.992 150.688 130.688 151.136L103.44 192H64C55.152 192 48 199.168 48 208V256H32V208C32 199.168 24.848 192 16 192C7.152 192 0 199.168 0 208V352C0 360.832 7.152 368 16 368C24.848 368 32 360.832 32 352V288H48V352C48 360.832 55.152 368 64 368H102.112L129.696 423.152C130.448 424.656 131.44 425.968 132.56 427.12C132.784 427.36 133.072 427.52 133.312 427.728C134.448 428.768 135.712 429.6 137.088 430.272C137.552 430.496 138.016 430.704 138.512 430.88C140.256 431.536 142.08 431.984 143.968 432C143.984 432 143.984 432 144 432H336C338.336 432 340.528 431.44 342.528 430.544C343.056 430.304 343.456 429.872 343.952 429.584C345.408 428.72 346.752 427.76 347.872 426.496C348.048 426.288 348.32 426.224 348.496 426L407.696 352H432V368C432 376.832 439.152 384 448 384H496C504.848 384 512 376.832 512 368V208C512 199.168 504.848 192 496 192ZM480 352H464V336C464 327.168 456.848 320 448 320H400C399.696 320 399.44 320.16 399.136 320.176C398.048 320.24 397.024 320.528 395.968 320.816C394.976 321.088 394 321.28 393.088 321.712C392.256 322.112 391.552 322.72 390.784 323.264C389.856 323.936 388.944 324.576 388.176 325.44C387.968 325.664 387.696 325.76 387.504 326L328.304 400H153.888L126.304 344.848C125.952 344.144 125.344 343.68 124.896 343.04C124.224 342.08 123.632 341.12 122.768 340.32C122 339.616 121.12 339.152 120.24 338.624C119.376 338.08 118.576 337.504 117.6 337.136C116.496 336.72 115.328 336.608 114.144 336.432C113.424 336.336 112.768 336 112 336H80V224H112H112.016C113.92 224 115.776 223.552 117.552 222.88C117.904 222.752 118.256 222.64 118.608 222.48C120.224 221.744 121.712 220.768 123.024 219.504C123.28 219.264 123.472 218.976 123.712 218.72C124.256 218.128 124.848 217.568 125.296 216.88L152.56 176H208C216.848 176 224 168.832 224 160V112H240V160C240 168.832 247.152 176 256 176H313.376L356.672 219.296C358.144 220.784 359.92 221.952 361.888 222.768C363.84 223.568 365.92 224 368 224H384V240C384 248.832 391.152 256 400 256H448C456.848 256 464 248.832 464 240V224H480V352Z" fill="#0D83D0"></path> <path d="M312.96 226.736C305.616 221.776 295.696 223.712 290.736 231.024L224.496 328.928L185.76 299.04C178.736 293.632 168.72 294.944 163.328 301.936C157.936 308.928 159.232 318.976 166.224 324.368L218.448 364.656C221.264 366.848 224.704 368 228.224 368C229.072 368 229.904 367.936 230.768 367.792C235.12 367.088 239.008 364.624 241.472 360.96L317.248 248.96C322.208 241.632 320.272 231.696 312.96 226.736Z" fill="#0D83D0"></path> </svg> 